<svg width="14" height="14" viewBox="0 0 14 14" fill="none" xmlns="http://www.w3.org/2000/svg">
<path d="M7 0C5.61553 0 4.26215 0.410543 3.11101 1.17971C1.95987 1.94888 1.06266 3.04213 0.532846 4.32121C0.00303299 5.6003 -0.13559 7.00776 0.134506 8.36563C0.404603 9.7235 1.07129 10.9708 2.05026 11.9497C3.02922 12.9287 4.2765 13.5954 5.63437 13.8655C6.99224 14.1356 8.3997 13.997 9.67879 13.4672C10.9579 12.9373 12.0511 12.0401 12.8203 10.889C13.5895 9.73784 14 8.38447 14 7C13.9979 5.14413 13.2597 3.36489 11.9474 2.0526C10.6351 0.740302 8.85586 0.00212317 7 0ZM7 12.6C5.89243 12.6 4.80972 12.2716 3.88881 11.6562C2.96789 11.0409 2.25013 10.1663 1.82628 9.14302C1.40243 8.11976 1.29153 6.99379 1.50761 5.90749C1.72368 4.8212 2.25703 3.82337 3.0402 3.0402C3.82338 2.25703 4.8212 1.72368 5.9075 1.5076C6.99379 1.29153 8.11976 1.40242 9.14303 1.82627C10.1663 2.25012 11.0409 2.96789 11.6562 3.88881C12.2716 4.80972 12.6 5.89242 12.6 7C12.5983 8.48469 12.0078 9.90808 10.9579 10.9579C9.90809 12.0078 8.48469 12.5983 7 12.6ZM7.7 6.8243V3.5C7.7 3.31435 7.62625 3.1363 7.49498 3.00502C7.3637 2.87375 7.18565 2.8 7 2.8C6.81435 2.8 6.6363 2.87375 6.50503 3.00502C6.37375 3.1363 6.3 3.31435 6.3 3.5V7C6.3001 7.11528 6.3285 7.22878 6.38271 7.33052L7.43271 9.2897C7.52037 9.45341 7.66948 9.5756 7.84722 9.62938C8.02497 9.68316 8.21681 9.66413 8.38052 9.57647C8.54424 9.48881 8.66642 9.3397 8.7202 9.16195C8.77398 8.98421 8.75495 8.79237 8.66729 8.62866L7.7 6.8243Z" fill="#D7A569"/>
</svg>
