<svg width="167" height="40" viewBox="0 0 167 40" fill="none" xmlns="http://www.w3.org/2000/svg">
<path d="M13.5 40C6.05607 40 0 33.9181 0 26.4425V13.5575C0 6.08187 6.05607 0 13.5 0C20.9439 0 27 6.08187 27 13.5575V26.4425C27 33.9181 20.9439 40 13.5 40ZM13.5 1.34503C6.79367 1.34503 1.33932 6.82261 1.33932 13.5575V26.4425C1.33932 33.1749 6.79367 38.655 13.5 38.655C20.2063 38.655 25.6607 33.1774 25.6607 26.4425V13.5575C25.6607 6.82261 20.2063 1.34503 13.5 1.34503Z" fill="white"/>
<path d="M0.936331 22.0929L0.469604 20.8227C2.7455 19.9529 4.6918 18.4148 6.0968 16.378C7.53548 14.2969 8.29571 11.8448 8.29571 9.28711V1.39526H9.62613V9.28711C9.62613 12.1249 8.78168 14.8497 7.18423 17.1593C5.62285 19.4197 3.46243 21.1249 0.936331 22.0905" fill="white"/>
<path d="M11.1985 34.8544C9.72908 34.8544 8.38051 34.3697 7.50321 33.5051C6.44224 32.4578 5.93955 30.9745 6.08698 29.3256C6.25373 27.4746 7.24945 25.4774 8.9702 23.5509C11.1236 21.1397 13.3567 20.3335 14.8502 20.0802C16.6798 19.7709 18.3981 20.1265 19.447 21.0276C20.2566 21.7242 20.7496 22.8543 20.839 24.2134C20.9285 25.5822 20.6626 28.3417 17.8833 31.4543C17.1486 32.2776 16.3535 32.9644 15.5173 33.5002C14.3379 34.2577 13.1029 34.7034 11.851 34.8228C11.6311 34.8447 11.4136 34.8544 11.1985 34.8544ZM16.0901 21.3199C14.35 21.3199 12.0709 22.0895 9.96108 24.4496C8.43609 26.1594 7.55638 27.8862 7.41621 29.445C7.30504 30.6823 7.66755 31.7832 8.43609 32.5406C9.16355 33.2591 10.3937 33.6098 11.7229 33.4808C12.7621 33.3809 13.7989 33.0034 14.7995 32.3604C15.5342 31.8903 16.2375 31.2814 16.89 30.5507C18.6809 28.5463 19.6331 26.2666 19.505 24.2986C19.4421 23.3195 19.1038 22.4987 18.5794 22.0481C18.096 21.6316 17.2042 21.3175 16.0901 21.3175" fill="white"/>
<path d="M14.0418 21.1629H12.6783V9.75055L20.1665 2.32568L21.1305 3.27916L14.0418 10.308V21.1629Z" fill="white"/>
<path d="M22.9553 5.5632L12.9829 15.6072L13.9266 16.5577L23.899 6.51371L22.9553 5.5632Z" fill="white"/>
<path d="M13.3827 10.6975C12.9922 10.6975 12.6783 10.397 12.6783 10.0287V1.36628C12.6783 0.995547 12.9948 0.69751 13.3827 0.69751C13.7706 0.69751 14.087 0.99797 14.087 1.36628V10.0287C14.087 10.3995 13.7706 10.6975 13.3827 10.6975Z" fill="white"/>
<path d="M165.116 27.7939C165.29 28.2196 165.483 28.5486 165.696 28.7808C165.908 29.013 166.121 29.1872 166.333 29.3033C166.546 29.4388 166.768 29.5259 167 29.5646V29.7097L165.667 29.5936C165.435 29.5742 165.212 29.5646 165 29.5646C164.787 29.5452 164.613 29.5355 164.478 29.5355C164.343 29.5355 164.169 29.5452 163.956 29.5646C163.763 29.5646 163.56 29.5742 163.347 29.5936L162.013 29.7097V29.5646C162.361 29.5452 162.651 29.4581 162.883 29.3033C163.096 29.1872 163.25 29.0034 163.347 28.7518C163.444 28.4809 163.386 28.1132 163.173 27.6488L162.738 26.6328C162.41 25.8587 161.975 25.2491 161.434 24.8041C160.912 24.359 160.38 24.0203 159.839 23.7881C159.298 23.5559 158.795 23.4107 158.331 23.3527C157.867 23.2753 157.548 23.2366 157.374 23.2366H152.388L150.619 27.5036C150.426 27.9487 150.406 28.3067 150.561 28.5776C150.735 28.8292 150.957 29.0324 151.228 29.1872C151.556 29.3614 151.953 29.4872 152.417 29.5646V29.7097C152.107 29.6904 151.808 29.6613 151.518 29.6226C151.266 29.6033 151.006 29.5839 150.735 29.5646C150.464 29.5452 150.232 29.5355 150.039 29.5355H149.865C149.788 29.5355 149.691 29.5452 149.575 29.5646C149.479 29.5646 149.363 29.5646 149.227 29.5646C149.034 29.5839 148.831 29.6033 148.618 29.6226C148.425 29.6226 148.232 29.6323 148.039 29.6516C147.826 29.671 147.623 29.6904 147.43 29.7097V29.5646C147.739 29.5065 148.048 29.3904 148.357 29.2162C148.628 29.0614 148.899 28.8389 149.169 28.5486C149.459 28.239 149.711 27.8229 149.923 27.3004C150.194 26.6425 150.503 25.8877 150.851 25.0363C151.218 24.1848 151.595 23.2849 151.982 22.3367C152.388 21.3885 152.793 20.4306 153.199 19.463C153.605 18.476 154.002 17.5278 154.388 16.6183C154.775 15.7088 155.132 14.8573 155.461 14.0639C155.809 13.2704 156.099 12.5835 156.331 12.0029C156.447 11.732 156.543 11.4998 156.621 11.3062C156.717 11.0934 156.804 10.9095 156.882 10.7547C156.94 10.5806 156.998 10.4257 157.056 10.2903H157.751C158.041 11.0063 158.37 11.7804 158.737 12.6125C159.027 13.3285 159.365 14.1509 159.752 15.0798C160.138 15.9894 160.554 16.9666 160.999 18.0116C161.443 19.0372 161.617 19.879 161.52 20.537C161.424 21.1756 161.202 21.6884 160.854 22.0755C160.564 22.3657 160.196 22.6076 159.752 22.8012C160.622 22.9947 161.463 23.3043 162.274 23.73C163.105 24.1558 163.743 24.7847 164.188 25.6168C164.246 25.7136 164.294 25.82 164.333 25.9361C164.391 26.0329 164.439 26.1393 164.478 26.2554L164.971 27.4456C164.99 27.4649 165 27.4939 165 27.5326L165.087 27.7068C165.087 27.7262 165.087 27.7455 165.087 27.7649C165.106 27.7649 165.116 27.7745 165.116 27.7939ZM157.2 22.5689C157.819 22.5689 158.302 22.4818 158.65 22.3077C158.998 22.1142 159.259 21.8819 159.433 21.611C159.607 21.3401 159.704 21.0401 159.723 20.7112C159.742 20.3628 159.723 20.0435 159.665 19.7533C159.626 19.4436 159.568 19.1727 159.491 18.9405C159.414 18.6889 159.356 18.5244 159.317 18.447L156.853 12.5254L152.677 22.5689H157.2Z" fill="white"/>
<path d="M145.899 28.0551C145.899 28.4615 145.947 28.7711 146.044 28.984C146.16 29.1775 146.286 29.3227 146.421 29.4194C146.556 29.5355 146.721 29.5936 146.914 29.5936V29.7097C146.663 29.6904 146.421 29.671 146.189 29.6516C145.996 29.6323 145.793 29.6226 145.58 29.6226C145.387 29.6033 145.232 29.5936 145.116 29.5936C145 29.5936 144.836 29.6033 144.623 29.6226C144.43 29.6226 144.227 29.6323 144.015 29.6516C143.783 29.671 143.531 29.6904 143.261 29.7097V29.5936C143.454 29.5936 143.628 29.5452 143.783 29.4485C143.899 29.3517 144.005 29.1969 144.102 28.984C144.218 28.7711 144.276 28.4712 144.276 28.0842V11.9158C144.276 11.5094 144.218 11.2095 144.102 11.016C144.005 10.8031 143.899 10.6483 143.783 10.5515C143.628 10.4548 143.454 10.4064 143.261 10.4064V10.2903C143.531 10.3096 143.783 10.329 144.015 10.3483C144.227 10.3677 144.43 10.387 144.623 10.4064C144.836 10.4064 145 10.4064 145.116 10.4064C145.232 10.4064 145.387 10.4064 145.58 10.4064C145.793 10.387 145.996 10.3677 146.189 10.3483C146.421 10.329 146.663 10.3096 146.914 10.2903V10.4064C146.721 10.4064 146.556 10.4548 146.421 10.5515C146.286 10.6483 146.16 10.8031 146.044 11.016C145.947 11.2288 145.899 11.5385 145.899 11.9449V28.0551Z" fill="white"/>
<path d="M142.028 10.4064C141.757 10.4064 141.506 10.4548 141.274 10.5515C141.1 10.6483 140.936 10.8031 140.781 11.016C140.626 11.2095 140.539 11.5094 140.52 11.9158V28.0842C140.52 28.239 140.53 28.3841 140.549 28.5196C140.588 28.6357 140.665 28.7905 140.781 28.984C140.878 29.1388 140.994 29.2646 141.129 29.3614C141.284 29.4388 141.429 29.4968 141.564 29.5355C141.719 29.5742 141.873 29.5936 142.028 29.5936V29.7097C141.757 29.6904 141.525 29.6807 141.332 29.6807C141.139 29.6613 140.945 29.6516 140.752 29.6516C140.578 29.6516 140.395 29.6516 140.201 29.6516C140.008 29.6516 139.776 29.671 139.505 29.7097L127.734 12.8157V28.0551C127.734 28.4615 127.811 28.7711 127.966 28.984C128.121 29.1775 128.295 29.3227 128.488 29.4194C128.701 29.5355 128.942 29.5936 129.213 29.5936V29.7097C129.039 29.6904 128.865 29.671 128.691 29.6516C128.536 29.6323 128.372 29.6226 128.198 29.6226C128.043 29.6033 127.889 29.5936 127.734 29.5936H127.067C126.913 29.5936 126.748 29.6033 126.574 29.6226C126.4 29.6226 126.236 29.6323 126.081 29.6516C125.907 29.671 125.734 29.6904 125.56 29.7097V29.5936C125.83 29.5936 126.081 29.5452 126.313 29.4485C126.507 29.3517 126.681 29.1969 126.835 28.984C126.99 28.7711 127.067 28.4712 127.067 28.0842V11.9158C127.067 11.6062 126.98 11.3062 126.806 11.016C126.71 10.8418 126.584 10.716 126.429 10.6386C126.294 10.5612 126.159 10.5032 126.023 10.4644C125.869 10.4257 125.714 10.4064 125.56 10.4064V10.2903C126.004 10.329 126.439 10.358 126.864 10.3774C127.29 10.3774 127.724 10.3774 128.169 10.3774L139.882 27.1843V11.9449C139.882 11.5385 139.805 11.2288 139.65 11.016C139.496 10.8031 139.322 10.6483 139.128 10.5515C138.916 10.4548 138.665 10.4064 138.375 10.4064V10.2903C138.549 10.3096 138.732 10.329 138.926 10.3483C139.08 10.3483 139.235 10.358 139.389 10.3774C139.563 10.3774 139.728 10.387 139.882 10.4064H140.52C140.675 10.387 140.839 10.3774 141.013 10.3774C141.187 10.358 141.351 10.3483 141.506 10.3483C141.68 10.329 141.854 10.3096 142.028 10.2903V10.4064Z" fill="white"/>
<path d="M114.613 10.0291C116.005 10.0291 117.3 10.2903 118.498 10.8128C119.716 11.3353 120.779 12.0513 121.687 12.9608C122.596 13.851 123.311 14.9057 123.833 16.1248C124.355 17.344 124.616 18.6406 124.616 20.0145C124.616 21.3885 124.355 22.6851 123.833 23.9042C123.311 25.1234 122.596 26.1877 121.687 27.0972C120.779 27.9874 119.716 28.6938 118.498 29.2163C117.3 29.7388 116.005 30 114.613 30C113.241 30 111.946 29.7388 110.728 29.2163C109.51 28.6938 108.447 27.9874 107.539 27.0972C106.63 26.1877 105.915 25.1234 105.393 23.9042C104.871 22.6851 104.61 21.3885 104.61 20.0145C104.61 18.6406 104.871 17.344 105.393 16.1248C105.915 14.9057 106.63 13.851 107.539 12.9608C108.447 12.0513 109.51 11.3353 110.728 10.8128C111.946 10.2903 113.241 10.0291 114.613 10.0291ZM118.034 28.7808C119.252 28.3745 120.257 27.7455 121.05 26.8941C121.842 26.0232 122.403 25.0169 122.731 23.8752C123.06 22.7334 123.156 21.5046 123.021 20.1887C122.886 18.8534 122.509 17.5085 121.89 16.1539C121.485 15.3024 120.992 14.538 120.412 13.8607C119.851 13.1834 119.223 12.6028 118.527 12.119C117.831 11.6352 117.087 11.2676 116.295 11.016C115.522 10.7644 114.729 10.6386 113.917 10.6386C112.97 10.6386 112.004 10.8321 111.018 11.2192C109.762 11.7223 108.756 12.4674 108.003 13.4543C107.268 14.4219 106.756 15.4862 106.466 16.6473C106.176 17.8084 106.089 18.9889 106.205 20.1887C106.321 21.3691 106.592 22.4432 107.017 23.4107C107.365 24.1848 107.838 24.9202 108.437 25.6168C109.056 26.3135 109.752 26.9231 110.525 27.4456C111.298 27.9681 112.129 28.3841 113.018 28.6938C113.908 29.0034 114.806 29.1582 115.715 29.1582C116.527 29.1582 117.3 29.0324 118.034 28.7808Z" fill="white"/>
<path d="M94.8499 10.3193C95.1978 10.3193 95.6617 10.3193 96.2416 10.3193C96.8215 10.3 97.4303 10.3193 98.0682 10.3774C98.7254 10.4354 99.3826 10.5515 100.04 10.7257C100.716 10.8999 101.325 11.1708 101.866 11.5385C102.408 11.8868 102.842 12.3609 103.171 12.9608C103.519 13.5607 103.693 14.3251 103.693 15.254C103.693 16.2216 103.519 17.0247 103.171 17.6633C102.823 18.3019 102.369 18.8147 101.808 19.2017C101.248 19.5888 100.629 19.879 99.9528 20.0726C99.2762 20.2467 98.6094 20.3628 97.9522 20.4209C97.295 20.4789 96.6862 20.508 96.1256 20.508C95.5651 20.4886 95.1302 20.4789 94.8209 20.4789H92.3855V28.0551C92.3855 28.4615 92.4338 28.7711 92.5304 28.984C92.6464 29.1775 92.7721 29.3227 92.9074 29.4194C93.0427 29.5355 93.207 29.5936 93.4002 29.5936V29.7097C93.149 29.6904 92.9074 29.671 92.6754 29.6516C92.4821 29.6323 92.2792 29.6226 92.0665 29.6226C91.8733 29.6033 91.7186 29.5936 91.6026 29.5936C91.4867 29.5936 91.3224 29.6033 91.1098 29.6226C90.9165 29.6226 90.7135 29.6323 90.5009 29.6516C90.269 29.671 90.0177 29.6904 89.7471 29.7097V29.5936C89.9404 29.5936 90.1143 29.5452 90.269 29.4485C90.3849 29.3517 90.4912 29.1969 90.5879 28.984C90.7039 28.7711 90.7618 28.4712 90.7618 28.0842V11.9158C90.7618 11.5094 90.7039 11.1998 90.5879 10.9869C90.4912 10.7741 90.3849 10.6193 90.269 10.5225C90.1143 10.4257 89.9404 10.3774 89.7471 10.3774V10.2903C90.4622 10.2903 91.1388 10.2903 91.7766 10.2903C92.3371 10.3096 92.8977 10.3193 93.4582 10.3193C94.0381 10.3193 94.502 10.3193 94.8499 10.3193ZM94.56 20.0145C94.8306 20.0145 95.1978 20.0242 95.6617 20.0435C96.145 20.0629 96.6668 20.0532 97.2274 20.0145C97.7879 19.9565 98.3485 19.85 98.909 19.6952C99.4695 19.5404 99.9817 19.2888 100.446 18.9405C100.91 18.5922 101.286 18.1277 101.576 17.5472C101.866 16.9666 102.011 16.2313 102.011 15.3411C102.011 14.4896 101.876 13.7929 101.605 13.2511C101.335 12.7092 100.977 12.2738 100.533 11.9449C100.107 11.5965 99.6242 11.3449 99.083 11.1901C98.5417 11.016 98.0102 10.9095 97.4883 10.8708C96.9664 10.8128 96.4735 10.7838 96.0096 10.7838C95.5651 10.7838 95.2075 10.7838 94.9369 10.7838H92.3855V20.0145H94.56Z" fill="white"/>
<path d="M87.2975 28.0551C87.2975 28.4615 87.3458 28.7711 87.4425 28.984C87.5584 29.1775 87.6841 29.3227 87.8194 29.4194C87.9547 29.5355 88.119 29.5936 88.3123 29.5936V29.7097C88.061 29.6904 87.8194 29.671 87.5874 29.6516C87.3748 29.6323 87.1719 29.6226 86.9786 29.6226C86.7853 29.6033 86.6307 29.5936 86.5147 29.5936C86.3987 29.5936 86.2344 29.6033 86.0218 29.6226C85.8285 29.6226 85.6256 29.6323 85.4129 29.6516C85.181 29.671 84.9297 29.6904 84.6591 29.7097V29.5936C84.8524 29.5936 85.0167 29.5452 85.152 29.4485C85.2873 29.3517 85.4033 29.1969 85.4999 28.984C85.6159 28.7711 85.6739 28.4712 85.6739 28.0842V13.4253L79.2663 26.6038L78.5995 28.0261H78.1646L70.5683 12.8157V28.0551C70.5683 28.4615 70.6456 28.7711 70.8003 28.984C70.9549 29.1775 71.1288 29.3227 71.3221 29.4194C71.5348 29.5355 71.7764 29.5936 72.047 29.5936V29.7097C71.873 29.6904 71.699 29.671 71.5251 29.6516C71.3705 29.6323 71.2062 29.6226 71.0322 29.6226C70.8776 29.6033 70.7229 29.5936 70.5683 29.5936H69.9015C69.7468 29.5936 69.5825 29.6033 69.4086 29.6226C69.2346 29.6226 69.0703 29.6323 68.9157 29.6516C68.7417 29.671 68.5678 29.6904 68.3938 29.7097V29.5936C68.6644 29.5936 68.9157 29.5452 69.1476 29.4485C69.3409 29.3517 69.5149 29.1969 69.6695 28.984C69.8241 28.7711 69.9015 28.4712 69.9015 28.0842V11.9158C69.9015 11.6062 69.8145 11.3062 69.6405 11.016C69.5439 10.8418 69.4182 10.716 69.2636 10.6386C69.1283 10.5419 68.993 10.4741 68.8577 10.4354C68.7031 10.3967 68.5484 10.3774 68.3938 10.3774V10.2903L69.3216 10.3483C69.9401 10.4451 70.549 10.4451 71.1482 10.3483L78.8894 25.8781L86.3987 10.4064C86.534 10.4064 86.6597 10.4064 86.7756 10.4064C86.8916 10.4064 87.0172 10.3967 87.1525 10.3774C87.2878 10.358 87.4231 10.3483 87.5584 10.3483C87.6938 10.3483 87.8194 10.3387 87.9354 10.3193C88.0707 10.3193 88.1963 10.3096 88.3123 10.2903V10.4064C88.119 10.4064 87.9547 10.4548 87.8194 10.5515C87.6841 10.6483 87.5584 10.8031 87.4425 11.016C87.3458 11.2288 87.2975 11.5385 87.2975 11.9449V28.0551Z" fill="white"/>
<path d="M66.1395 28.0551C66.1395 28.4615 66.1878 28.7711 66.2845 28.984C66.4004 29.1775 66.5261 29.3227 66.6614 29.4194C66.7967 29.5355 66.961 29.5936 67.1543 29.5936V29.7097C66.903 29.6904 66.6614 29.671 66.4294 29.6516C66.2361 29.6323 66.0332 29.6226 65.8206 29.6226C65.6273 29.6033 65.4727 29.5936 65.3567 29.5936C65.2407 29.5936 65.0764 29.6033 64.8638 29.6226C64.6705 29.6226 64.4675 29.6323 64.2549 29.6516C64.023 29.671 63.7717 29.6904 63.5011 29.7097V29.5936C63.6944 29.5936 63.8683 29.5452 64.023 29.4485C64.139 29.3517 64.2453 29.1969 64.3419 28.984C64.4579 28.7711 64.5159 28.4712 64.5159 28.0842V11.9158C64.5159 11.5094 64.4579 11.2095 64.3419 11.016C64.2453 10.8031 64.139 10.6483 64.023 10.5515C63.8683 10.4548 63.6944 10.4064 63.5011 10.4064V10.2903C63.7717 10.3096 64.023 10.329 64.2549 10.3483C64.4675 10.3677 64.6705 10.387 64.8638 10.4064C65.0764 10.4064 65.2407 10.4064 65.3567 10.4064C65.4727 10.4064 65.6273 10.4064 65.8206 10.4064C66.0332 10.387 66.2361 10.3677 66.4294 10.3483C66.6614 10.329 66.903 10.3096 67.1543 10.2903V10.4064C66.961 10.4064 66.7967 10.4548 66.6614 10.5515C66.5261 10.6483 66.4004 10.8031 66.2845 11.016C66.1878 11.2288 66.1395 11.5385 66.1395 11.9449V28.0551Z" fill="white"/>
<path d="M58.2784 20.3338C58.7617 20.5467 59.2352 20.7886 59.6991 21.0595C60.1823 21.3111 60.5979 21.6304 60.9458 22.0174C61.3131 22.3851 61.574 22.8398 61.7287 23.3817C61.9026 23.9235 61.9219 24.5815 61.7866 25.3556C61.574 26.4393 61.0811 27.3101 60.308 27.968C59.5542 28.626 58.6747 29.1291 57.6696 29.4775C56.9351 29.7097 56.1716 29.8548 55.3791 29.9129C54.6059 29.9903 53.8328 30.0096 53.0596 29.9709C52.2865 29.9129 51.5326 29.7677 50.7981 29.5355C50.083 29.284 49.3968 28.9647 48.7396 28.5776C48.643 28.5196 48.5173 28.4615 48.3627 28.4035C48.2274 28.3454 48.0824 28.3164 47.9278 28.3164C47.7152 28.3164 47.5219 28.4131 47.3479 28.6066C47.1933 28.7808 47.116 29.1485 47.116 29.7097H47V21.7852H47.203C47.145 22.6367 47.203 23.4688 47.3769 24.2815C47.6475 25.8297 48.2854 27.0295 49.2905 27.881C50.2956 28.7131 51.5616 29.2356 53.0886 29.4484C53.8811 29.5452 54.6833 29.5549 55.4951 29.4775C56.3069 29.4001 57.0704 29.1678 57.7856 28.7808C58.2108 28.5679 58.5974 28.297 58.9453 27.968C59.2932 27.6391 59.5831 27.2714 59.8151 26.865C60.0084 26.5167 60.1437 26.149 60.221 25.7619C60.3176 25.3556 60.3176 24.9589 60.221 24.5718C60.1244 24.1461 59.9407 23.7687 59.6701 23.4397C59.4188 23.1108 59.1096 22.8398 58.7423 22.627C58.4524 22.4528 58.0658 22.2496 57.5826 22.0174C57.1187 21.7852 56.5968 21.5336 56.017 21.2627C55.4564 20.9918 54.8669 20.7208 54.2484 20.4499C53.6298 20.1596 53.021 19.8694 52.4218 19.5791C51.8226 19.2888 51.2524 19.0179 50.7112 18.7663C50.1893 18.4954 49.7447 18.2535 49.3775 18.0406C48.7976 17.7116 48.3337 17.3149 47.9858 16.8505C47.6572 16.3861 47.4446 15.8829 47.3479 15.3411C47.2706 14.7992 47.3286 14.2477 47.5219 13.6865C47.7152 13.1253 48.0631 12.5931 48.5656 12.09C48.7009 11.9545 48.8363 11.8287 48.9716 11.7126C49.1069 11.5965 49.2518 11.4804 49.4065 11.3643C50.083 10.8999 50.8175 10.5612 51.61 10.3483C52.4218 10.1161 53.2626 10 54.1324 10C55.2921 10 56.3745 10.1742 57.3796 10.5225C58.4814 10.8902 59.3222 11.3933 59.9021 12.0319C60.4819 12.6512 60.9168 13.5027 61.2068 14.5863C61.2261 14.6831 61.2551 14.7605 61.2938 14.8186C61.3517 14.8573 61.4291 14.8573 61.5257 14.8186L62.3955 14.267L62.4825 14.4412L60.7719 15.5733L56.3939 18.3599L56.2779 18.1858C56.4325 18.089 56.6355 17.9535 56.8868 17.7794C57.0994 17.6439 57.37 17.4698 57.6986 17.2569C58.0272 17.044 58.4234 16.7828 58.8873 16.4731C59.2352 16.2409 59.4865 15.9119 59.6411 15.4862C59.7571 15.1572 59.7958 14.7992 59.7571 14.4122C59.6991 13.6768 59.4865 13.0576 59.1192 12.5544C58.752 12.0513 58.2881 11.6546 57.7276 11.3643C57.1864 11.0547 56.5872 10.8321 55.93 10.6967C55.2728 10.5418 54.6349 10.4644 54.0164 10.4644C53.3399 10.4644 52.673 10.5418 52.0159 10.6967C51.3587 10.8515 50.7691 11.1514 50.2473 11.5965C49.7254 12.0416 49.3581 12.5931 49.1455 13.2511C48.9522 13.8897 48.9812 14.4896 49.2325 15.0508C49.4644 15.5733 49.8124 16.0184 50.2763 16.3861C50.7595 16.7344 51.2524 17.0343 51.7549 17.2859C52.3928 17.6149 52.9726 17.9052 53.4945 18.1567C54.0164 18.4083 54.5286 18.6502 55.0312 18.8824C55.5337 19.1146 56.0363 19.3469 56.5388 19.5791C57.0607 19.792 57.6406 20.0435 58.2784 20.3338Z" fill="white"/>
</svg>
